<svg width="22" height="19" viewBox="0 0 22 19" fill="none" xmlns="http://www.w3.org/2000/svg">
<path d="M19.9475 2.03741L19.9493 2.03914C22.0159 4.06236 22.0185 7.38257 19.9475 9.43032L10.9804 18.2969L2.0393 9.45616C2.03871 9.45557 2.03812 9.45497 2.03753 9.45437C1.05163 8.45832 0.5 7.14157 0.5 5.74496C0.5 4.34306 1.03283 3.02898 2.03566 2.0374L2.03566 2.03741L2.03742 2.03565C4.08643 -0.0106297 7.45279 -0.0131434 9.52677 2.05787L9.52852 2.0596L10.6288 3.14754L10.9839 3.49868L11.3355 3.14397L12.434 2.03565C14.5072 -0.0124668 17.875 -0.0118835 19.9475 2.03741Z" fill="black" stroke="black"/>
</svg>
